<?xml version="1.0" encoding="utf-8"?>
<svg version="1.1" width="20px" height="13px" xmlns:xlink="http://www.w3.org/1999/xlink" xmlns="http://www.w3.org/2000/svg">
  <g transform="translate(-107 -489 )">
    <path d="M 17.6629088626493 10.7488811358794  C 18.0740618213898 10.3568568854826  18.27963830076 9.88536826000543  18.27963830076 9.33441525944779  C 18.27963830076 8.91766875902598  18.1536995566413 8.54153738364528  17.9018220684039 8.20602113330569  C 17.6499445801665 7.8705048829661  17.327689558451 7.62858000772124  16.9350570032573 7.4802465075711  C 16.8831998733261 7.79810400789282  16.7980060170105 8.12302500822168  16.6794754343105 8.4550095085577  C 16.6276183043793 8.62453350872928  16.5257560848715 8.75874000886512  16.3738887757872 8.85762900896521  C 16.2220214667029 8.9565180090653  16.0571898751357 9.00596250911535  15.8793940010858 9.00596250911535  C 15.7904960640608 9.00596250911535  15.7015981270358 8.99536725910462  15.6127001900109 8.97417675908317  C 15.3830471860297 8.90354175901168  15.2163635541079 8.76756938387406  15.1126492942454 8.5662596336703  C 15.0089350343829 8.36494988346654  14.9941187115454 8.15834250825743  15.0682003257329 7.94643750804295  C 15.2385880383641 7.44492900753535  15.3237818946797 6.93988875702418  15.3237818946797 6.43131675650943  C 15.3237818946797 5.56250625563007  15.0978329714079 4.75903312981683  14.6459351248643 4.02089737906974  C 14.1940372783207 3.28276162832263  13.5791598805646 2.69825700273103  12.8013029315961 2.26738350229492  C 12.0234459826276 1.83651000185882  11.1789155808903 1.62107325164076  10.2677117263844 1.62107325164076  C 9.27501809627217 1.62107325164076  8.36011016105682 1.87889100190171  7.52298792073833 2.39452650242361  C 6.68586568041983 2.9101620029455  6.0672842019544 3.59532150363899  5.66724348534202 4.45000500450405  C 6.46732491856677 4.64778300470423  7.16369209192906 5.02214850508315  7.75634500542888 5.57310150564079  C 7.91932455664133 5.73556200580522  8.00081433224756 5.92980825600183  8.00081433224756 6.15584025623061  C 8.00081433224756 6.38187225645938  7.91932455664133 6.57258675665241  7.75634500542888 6.7279837568097  C 7.59336545421643 6.88338075696698  7.39334509591024 6.96107925704563  7.15628393051032 6.96107925704563  C 6.91922276511039 6.96107925704563  6.71549832609482 6.88338075696698  6.54511061346362 6.7279837568097  C 5.98949850705755 6.1982212562735  5.32276397937025 5.93334000600541  4.54490703040173 5.93334000600541  C 3.75964192001447 5.93334000600541  3.08920331161781 6.19645538127171  2.53359120521173 6.72268613180434  C 1.97797909880564 7.24891688233696  1.70017304560261 7.88639775798218  1.70017304560261 8.63512875874001  C 1.70017304560261 9.38385975949783  1.97797909880564 10.0213406351431  2.53359120521173 10.5475713856757  C 3.08920331161781 11.0738021362083  3.75964192001447 11.3369175114746  4.54490703040173 11.3369175114746  L 16.1683122964169 11.3369175114746  C 16.753557048498 11.3369175114746  17.2517559039088 11.1409053862762  17.6629088626493 10.7488811358794  Z M 19.1297248235613 7.0617341321475  C 19.6964491720956 7.72217138281596  19.9798113463626 8.47973175858272  19.9798113463626 9.33441525944779  C 19.9798113463626 10.337432260463  19.6075512350706 11.1921157613281  18.8630310124864 11.898465762043  C 18.1185107899023 12.6048157627579  17.2202712178791 12.9579907631154  16.1683122964169 13  L 4.54490703040173 13  C 3.29292775063337 12.9579907631154  2.22244842562432 12.5359466376882  1.33346905537459 11.6918583868339  C 0.444489685124862 10.8477701359795  0 9.82886025994824  0 8.63512875874001  C 0 7.55441325764617  0.370408070937389 6.61143600669174  1.11122421281216 5.80619700587672  C 1.85204035468694 5.0009580050617  2.77435645132103 4.52064000457554  3.87817250271444 4.36524300441826  C 4.3374785106768 3.06555900310279  5.15608034744843 2.01309750203755  6.33397801302932 1.20785850122253  C 7.5118756786102 0.402619500407509  8.82312024972856 0  10.2677117263844 0  C 12.0086296597901 0  13.5217466295693 0.55978237556658  14.807062635722 1.67934712669975  C 16.0923786418748 2.79891187783291  16.8202305012667 4.17452850422523  16.9906182138979 5.80619700587672  C 17.8499649384727 5.98278450605545  18.5630004750271 6.40129688147904  19.1297248235613 7.0617341321475  Z " fill-rule="nonzero" fill="#000000" stroke="none" transform="matrix(1 0 0 1 107 489 )" />
  </g>
</svg>