<?xml version="1.0" encoding="utf-8"?>
<svg version="1.1" width="17px" height="16px" xmlns:xlink="http://www.w3.org/1999/xlink" xmlns="http://www.w3.org/2000/svg">
  <g transform="translate(-257 -86 )">
    <path d="M 12.8828125 14.53  C 13.0122195512821 14.4033333333333  13.0769230769231 14.2533333333333  13.0769230769231 14.08  C 13.0769230769231 13.9066666666667  13.0122195512821 13.7566666666667  12.8828125 13.63  C 12.753405448718 13.5033333333333  12.6001602564103 13.44  12.4230769230769 13.44  C 12.2459935897436 13.44  12.0927483974359 13.5033333333333  11.9633413461538 13.63  C 11.8339342948718 13.7566666666667  11.7692307692308 13.9066666666667  11.7692307692308 14.08  C 11.7692307692308 14.2533333333333  11.8339342948718 14.4033333333333  11.9633413461538 14.53  C 12.0927483974359 14.6566666666667  12.2459935897436 14.72  12.4230769230769 14.72  C 12.6001602564103 14.72  12.753405448718 14.6566666666667  12.8828125 14.53  Z M 15.4981971153846 14.53  C 15.6276041666667 14.4033333333333  15.6923076923077 14.2533333333333  15.6923076923077 14.08  C 15.6923076923077 13.9066666666667  15.6276041666667 13.7566666666667  15.4981971153846 13.63  C 15.3687900641026 13.5033333333333  15.2155448717949 13.44  15.0384615384615 13.44  C 14.8613782051282 13.44  14.7081330128205 13.5033333333333  14.5787259615385 13.63  C 14.4493189102564 13.7566666666667  14.3846153846154 13.9066666666667  14.3846153846154 14.08  C 14.3846153846154 14.2533333333333  14.4493189102564 14.4033333333333  14.5787259615385 14.53  C 14.7081330128205 14.6566666666667  14.8613782051282 14.72  15.0384615384615 14.72  C 15.2155448717949 14.72  15.3687900641026 14.6566666666667  15.4981971153846 14.53  Z M 16.7139423076923 11.16  C 16.9046474358974 11.3466666666667  17 11.5733333333333  17 11.84  L 17 15.04  C 17 15.3066666666667  16.9046474358974 15.5333333333333  16.7139423076923 15.72  C 16.5232371794872 15.9066666666667  16.2916666666667 16  16.0192307692308 16  L 0.980769230769231 16  C 0.708333333333333 16  0.476762820512821 15.9066666666667  0.286057692307692 15.72  C 0.0953525641025641 15.5333333333333  0 15.3066666666667  0 15.04  L 0 11.84  C 0 11.5733333333333  0.0953525641025641 11.3466666666667  0.286057692307692 11.16  C 0.476762820512821 10.9733333333333  0.708333333333333 10.88  0.980769230769231 10.88  L 5.34314903846154 10.88  C 5.48617788461538 11.2533333333333  5.72626201923077 11.56  6.06340144230769 11.8  C 6.40054086538462 12.04  6.77684294871795 12.16  7.19230769230769 12.16  L 9.80769230769231 12.16  C 10.2231570512821 12.16  10.5994591346154 12.04  10.9365985576923 11.8  C 11.2737379807692 11.56  11.5138221153846 11.2533333333333  11.6568509615385 10.88  L 16.0192307692308 10.88  C 16.2916666666667 10.88  16.5232371794872 10.9733333333333  16.7139423076923 11.16  Z M 13.5366586538462 4.67  C 13.747796474359 4.87  13.7954727564103 5.1  13.6796875 5.36  C 13.5639022435897 5.62666666666667  13.3629807692308 5.76  13.0769230769231 5.76  L 10.4615384615385 5.76  L 10.4615384615385 10.24  C 10.4615384615385 10.4133333333333  10.3968349358974 10.5633333333333  10.2674278846154 10.69  C 10.1380208333333 10.8166666666667  9.98477564102564 10.88  9.80769230769231 10.88  L 7.19230769230769 10.88  C 7.01522435897436 10.88  6.86197916666667 10.8166666666667  6.73257211538462 10.69  C 6.60316506410256 10.5633333333333  6.53846153846154 10.4133333333333  6.53846153846154 10.24  L 6.53846153846154 5.76  L 3.92307692307692 5.76  C 3.63701923076923 5.76  3.43609775641026 5.62666666666667  3.3203125 5.36  C 3.20452724358974 5.1  3.25220352564103 4.87  3.46334134615385 4.67  L 8.04026442307692 0.19  C 8.16286057692308 0.0633333333333326  8.31610576923077 0  8.5 0  C 8.68389423076923 0  8.83713942307692 0.0633333333333326  8.95973557692308 0.19  L 13.5366586538462 4.67  Z " fill-rule="nonzero" fill="#000000" stroke="none" transform="matrix(1 0 0 1 257 86 )" />
  </g>
</svg>